<svg xmlns="http://www.w3.org/2000/svg" width="606" height="598.951" viewBox="0 0 606 598.951">
  <g id="Grupo_10595" data-name="Grupo 10595" transform="translate(-457.307 -8743.219)">
    <text id="Representación_gráfica_de_un_arreglo_unidimensional" data-name="Representación gráfica de un arreglo unidimensional" transform="translate(760.307 8764.219)" fill="#008275" font-size="22" font-family="Montserrat-SemiBold, Montserrat" font-weight="600"><tspan x="-302.841" y="0">Representación gráfica de un arreglo unidimensional</tspan></text>
    <rect id="Rectángulo_4275" data-name="Rectángulo 4275" width="217.556" height="5.122" transform="translate(651.529 8846.561)" fill="#ffca7d"/>
    <rect id="Rectángulo_4276" data-name="Rectángulo 4276" width="217.556" height="44.185" transform="translate(651.529 8851.682)" fill="#ffe7ba"/>
    <text id="Álgebra" transform="translate(661.601 8861.108)" fill="#805413" font-size="18" font-family="OpenSans-Regular, Open Sans"><tspan x="66.56" y="19">Álgebra</tspan></text>
    <text id="_0" data-name="0" transform="translate(604.001 8861.107)" fill="#805413" font-size="18" font-family="OpenSans-Regular, Open Sans"><tspan x="13.454" y="19">0</tspan></text>
    <text id="_1" data-name="1" transform="translate(604.001 8910.314)" fill="#805413" font-size="18" font-family="OpenSans-Regular, Open Sans"><tspan x="13.454" y="19">1</tspan></text>
    <text id="_2" data-name="2" transform="translate(604.001 8959.521)" fill="#805413" font-size="18" font-family="OpenSans-Regular, Open Sans"><tspan x="13.454" y="19">2</tspan></text>
    <text id="_3" data-name="3" transform="translate(604.001 9008.729)" fill="#805413" font-size="18" font-family="OpenSans-Regular, Open Sans"><tspan x="13.454" y="19">3</tspan></text>
    <text id="_4" data-name="4" transform="translate(604.001 9057.936)" fill="#805413" font-size="18" font-family="OpenSans-Regular, Open Sans"><tspan x="13.454" y="19">4</tspan></text>
    <text id="_5" data-name="5" transform="translate(604.001 9107.143)" fill="#805413" font-size="18" font-family="OpenSans-Regular, Open Sans"><tspan x="13.454" y="19">5</tspan></text>
    <text id="_6" data-name="6" transform="translate(604.001 9156.35)" fill="#805413" font-size="18" font-family="OpenSans-Regular, Open Sans"><tspan x="13.454" y="19">6</tspan></text>
    <text id="_7" data-name="7" transform="translate(604.001 9205.557)" fill="#805413" font-size="18" font-family="OpenSans-Regular, Open Sans"><tspan x="13.454" y="19">7</tspan></text>
    <g id="Grupo_10429" data-name="Grupo 10429" transform="translate(41 666)">
      <rect id="Rectángulo_4277" data-name="Rectángulo 4277" width="217.556" height="5.122" transform="translate(610.529 8229.867)" fill="#ffca7d"/>
      <rect id="Rectángulo_4278" data-name="Rectángulo 4278" width="217.556" height="44.185" transform="translate(610.529 8234.989)" fill="#ffe7ba"/>
      <text id="Cálculo" transform="translate(620.601 8244.415)" fill="#805413" font-size="18" font-family="OpenSans-Regular, Open Sans"><tspan x="68.226" y="19">Cálculo</tspan></text>
    </g>
    <g id="Grupo_10430" data-name="Grupo 10430" transform="translate(41 666)">
      <rect id="Rectángulo_4279" data-name="Rectángulo 4279" width="217.556" height="5.122" transform="translate(610.529 8279.174)" fill="#ffca7d"/>
      <rect id="Rectángulo_4280" data-name="Rectángulo 4280" width="217.556" height="44.185" transform="translate(610.529 8284.297)" fill="#ffe7ba"/>
      <text id="Democracia" transform="translate(620.601 8293.722)" fill="#805413" font-size="18" font-family="OpenSans-Regular, Open Sans"><tspan x="48.758" y="19">Democracia</tspan></text>
    </g>
    <g id="Grupo_10431" data-name="Grupo 10431" transform="translate(41 666)">
      <rect id="Rectángulo_4281" data-name="Rectángulo 4281" width="217.556" height="5.122" transform="translate(610.529 8328.481)" fill="#ffca7d"/>
      <rect id="Rectángulo_4282" data-name="Rectángulo 4282" width="217.556" height="44.185" transform="translate(610.529 8333.604)" fill="#ffe7ba"/>
      <text id="Dibujo" transform="translate(620.601 8343.028)" fill="#805413" font-size="18" font-family="OpenSans-Regular, Open Sans"><tspan x="71.118" y="19">Dibujo</tspan></text>
    </g>
    <g id="Grupo_10432" data-name="Grupo 10432" transform="translate(41 666)">
      <rect id="Rectángulo_4283" data-name="Rectángulo 4283" width="217.556" height="5.122" transform="translate(610.529 8377.788)" fill="#ffca7d"/>
      <rect id="Rectángulo_4284" data-name="Rectángulo 4284" width="217.556" height="44.185" transform="translate(610.529 8382.91)" fill="#ffe7ba"/>
      <text id="Ética_y_Valores" data-name="Ética y Valores" transform="translate(620.601 8392.335)" fill="#805413" font-size="18" font-family="OpenSans-Regular, Open Sans"><tspan x="38.655" y="19">Ética y Valores</tspan></text>
    </g>
    <g id="Grupo_10433" data-name="Grupo 10433" transform="translate(41 666)">
      <rect id="Rectángulo_4285" data-name="Rectángulo 4285" width="217.556" height="5.122" transform="translate(610.529 8427.096)" fill="#ffca7d"/>
      <rect id="Rectángulo_4286" data-name="Rectángulo 4286" width="217.556" height="44.185" transform="translate(610.529 8432.218)" fill="#ffe7ba"/>
      <text id="Lenguaje" transform="translate(620.601 8441.642)" fill="#805413" font-size="18" font-family="OpenSans-Regular, Open Sans"><tspan x="60.676" y="19">Lenguaje</tspan></text>
    </g>
    <g id="Grupo_10434" data-name="Grupo 10434" transform="translate(41 666)">
      <rect id="Rectángulo_4287" data-name="Rectángulo 4287" width="217.556" height="5.122" transform="translate(610.529 8476.402)" fill="#ffca7d"/>
      <rect id="Rectángulo_4288" data-name="Rectángulo 4288" width="217.556" height="44.185" transform="translate(610.529 8481.524)" fill="#ffe7ba"/>
    </g>
    <g id="Grupo_10435" data-name="Grupo 10435" transform="translate(41 666)">
      <rect id="Rectángulo_4289" data-name="Rectángulo 4289" width="217.556" height="5.122" transform="translate(610.529 8525.71)" fill="#ffca7d"/>
      <rect id="Rectángulo_4290" data-name="Rectángulo 4290" width="217.556" height="44.185" transform="translate(610.529 8530.832)" fill="#ffe7ba"/>
    </g>
    <text id="_8" data-name="8" transform="translate(604.001 9254.863)" fill="#805413" font-size="18" font-family="OpenSans-Regular, Open Sans"><tspan x="13.454" y="19">8</tspan></text>
    <g id="Grupo_10436" data-name="Grupo 10436" transform="translate(41 666)">
      <rect id="Rectángulo_4291" data-name="Rectángulo 4291" width="217.556" height="5.122" transform="translate(610.529 8575.017)" fill="#ffca7d"/>
      <rect id="Rectángulo_4292" data-name="Rectángulo 4292" width="217.556" height="44.185" transform="translate(610.529 8580.139)" fill="#ffe7ba"/>
    </g>
    <text id="_9" data-name="9" transform="translate(604.001 9304.17)" fill="#805413" font-size="18" font-family="OpenSans-Regular, Open Sans"><tspan x="13.454" y="19">9</tspan></text>
    <g id="Grupo_10437" data-name="Grupo 10437" transform="translate(41 666)">
      <rect id="Rectángulo_4293" data-name="Rectángulo 4293" width="217.556" height="5.122" transform="translate(610.529 8624.324)" fill="#ffca7d"/>
      <rect id="Rectángulo_4294" data-name="Rectángulo 4294" width="217.556" height="44.185" transform="translate(610.529 8629.446)" fill="#ffe7ba"/>
    </g>
    <path id="Rectángulo_4295" data-name="Rectángulo 4295" d="M4,0H213.556a4,4,0,0,1,4,4V54.289a0,0,0,0,1,0,0H0a0,0,0,0,1,0,0V4A4,4,0,0,1,4,0Z" transform="translate(651.529 8792.271)" fill="#33bdb0"/>
    <text id="Materias" transform="translate(661.601 8804.617)" fill="#fff" font-size="20" font-family="OpenSans-SemiBold, Open Sans" font-weight="600"><tspan x="56.216" y="21">Materias</tspan></text>
  </g>
</svg>
