<svg xmlns="http://www.w3.org/2000/svg" width="1070.402" height="156.088" viewBox="0 0 1070.402 156.088">
  <g id="Grupo_10596" data-name="Grupo 10596" transform="translate(-237 -9411.023)">
    <path id="Rectángulo_4255" data-name="Rectángulo 4255" d="M21.5,0H157.216a0,0,0,0,1,0,0V156.088a0,0,0,0,1,0,0H21.5A21.5,21.5,0,0,1,0,134.592V21.5A21.5,21.5,0,0,1,21.5,0Z" transform="translate(237 9411.023)" fill="#b8ecf3"/>
    <path id="Rectángulo_4256" data-name="Rectángulo 4256" d="M0,0H892.615a21.5,21.5,0,0,1,21.5,21.5v113.1a21.5,21.5,0,0,1-21.5,21.5H0a0,0,0,0,1,0,0V0A0,0,0,0,1,0,0Z" transform="translate(393.292 9411.023)" fill="#d4f4f7"/>
    <text id="Si_se_desea_adicionar_al_arreglo_la_materia_Ciencias_Sociales_de_acuerdo_con_el_requisito_del_orden_alfabético_dicha_materia_debe_ir_ubicada_en_la_posición_2_del_arreglo_y_por_lo_tanto_las_materias_Democracia_Dibujo_Ética_y_Valores_y_Lenguaje_deberán" data-name="Si se desea adicionar al arreglo la materia “Ciencias Sociales”, de acuerdo con el requisito del orden alfabético, dicha materia debe ir ubicada en la posición 2 del arreglo y por lo tanto las materias Democracia, Dibujo, Ética y Valores y Lenguaje deberán" transform="translate(420.193 9471.314)" fill="#00223d" font-size="16" font-family="OpenSans-Regular, Open Sans"><tspan x="0" y="17">Si se desea adicionar al arreglo la materia “Ciencias Sociales”, de acuerdo con el requisito del orden alfabético, dicha </tspan><tspan x="0" y="39">materia debe ir ubicada en la posición 2 del arreglo y por lo tanto las materias Democracia, Dibujo, Ética y Valores y </tspan><tspan x="0" y="61">Lenguaje deberán pasar a ocupar las posiciones 3, 4, 5 y 6, respectivamente.</tspan></text>
    <text id="Agregar_elementos" data-name="Agregar elementos" transform="translate(420.193 9434.053)" fill="#00223d" font-size="16" font-family="OpenSans-Bold, Open Sans" font-weight="700"><tspan x="0" y="17">Agregar elementos</tspan></text>
    <line id="Línea_435" data-name="Línea 435" x2="863.109" transform="translate(420.193 9460.87)" fill="none" stroke="#94e3ec" stroke-linecap="round" stroke-miterlimit="10" stroke-width="2"/>
    <g id="Grupo_10450" data-name="Grupo 10450" transform="translate(41 666)">
      <path id="Trazado_3761" data-name="Trazado 3761" d="M318.808,8806.652a36.586,36.586,0,0,0-35.111-35.111,31.961,31.961,0,0,0-33.234,29.886,35.459,35.459,0,0,0,4.163,19.163,11.672,11.672,0,0,0-12.257,7.692l-1.761,5.007a1.51,1.51,0,0,0,2.849,1l1.762-5.007a8.632,8.632,0,0,1,9.844-5.572l1.678.345a37.291,37.291,0,0,0,9.652,9.62l-6.141,6.143a1.51,1.51,0,0,0,2.136,2.135l17.3-17.3a6.05,6.05,0,1,1,8.556,8.556l-12.334,12.336a1.514,1.514,0,0,0-.435.925l-.49,5.151a16.329,16.329,0,0,1-16.556,14.787l-4.787-.089a1.506,1.506,0,0,0-1.1.441l-4.2,4.2-14.305-14.3,2.15-2.15a1.487,1.487,0,0,0,.356-.565l4.913-13.966a1.51,1.51,0,0,0-2.849-1l-4.8,13.641-2.974,2.975a1.507,1.507,0,0,0,0,2.135l16.44,16.441a1.507,1.507,0,0,0,2.135,0l4.813-4.813,4.146.078a19.35,19.35,0,0,0,19.619-17.521l.438-4.611,7.335-7.336c.258,0,.516.009.774.009a32,32,0,0,0,32.272-33.319Zm-11.487,21.82a28.888,28.888,0,0,1-18.459,8.391l1.515-1.516a9.07,9.07,0,0,0-12.827-12.826l-8.981,8.982a34.357,34.357,0,0,1-9.667-9.636,32.6,32.6,0,0,1-5.427-20.227,28.942,28.942,0,0,1,30.135-27.082,33.568,33.568,0,0,1,32.179,32.18,29.173,29.173,0,0,1-8.468,21.733Zm0,0" fill="#4dd0e0"/>
      <g id="Grupo_10449" data-name="Grupo 10449">
        <path id="Trazado_3762" data-name="Trazado 3762" d="M293.224,8808.034h-4.83a1.509,1.509,0,0,0-1.509,1.509V8821.6a7.408,7.408,0,0,1,3.02,2.338v-12.881h3.319a1.509,1.509,0,0,0,0-3.019Z" fill="#4dd0e0"/>
        <path id="Trazado_3763" data-name="Trazado 3763" d="M306.361,8800.445l-16.457,0v-16.458a5.3,5.3,0,1,0-10.608,0v16.457H262.84a5.3,5.3,0,1,0,0,10.606H279.3v11.778a9.375,9.375,0,0,1,3.02-1.387v-11.9a1.508,1.508,0,0,0-1.51-1.509H262.84a2.284,2.284,0,1,1,0-4.567h17.968a1.51,1.51,0,0,0,1.509-1.51v-17.967a2.284,2.284,0,0,1,4.568,0v17.968a1.511,1.511,0,0,0,1.51,1.51l17.967,0a2.284,2.284,0,0,1,0,4.568h-7.1a1.509,1.509,0,0,0,0,3.019h7.1a5.3,5.3,0,1,0,0-10.607Z" fill="#4dd0e0"/>
      </g>
    </g>
  </g>
</svg>
