<svg xmlns="http://www.w3.org/2000/svg" width="269.407" height="72.144" viewBox="0 0 269.407 72.144">
  <g id="Grupo_10593" data-name="Grupo 10593" transform="translate(1340 -2279.604)">
    <text id="Definición" transform="translate(-1231.593 2324.451)" fill="#407dcf" font-size="30" font-family="Montserrat-SemiBold, Montserrat" font-weight="600"><tspan x="0" y="0">Definición</tspan></text>
    <line id="Línea_437" data-name="Línea 437" y2="68.144" transform="translate(-1251.291 2281.604)" fill="none" stroke="#a4dbf5" stroke-linecap="round" stroke-miterlimit="10" stroke-width="4"/>
    <g id="Grupo_10459" data-name="Grupo 10459">
      <path id="Trazado_3791" data-name="Trazado 3791" d="M-1284.966,2289.607h-11.586v-.724a7.972,7.972,0,0,0-7.966-7.965h-27.517a7.971,7.971,0,0,0-7.965,7.965v44.9a7.971,7.971,0,0,0,7.965,7.965h6.518a8.7,8.7,0,0,0,8.689,8.69h31.862a8.7,8.7,0,0,0,8.689-8.69V2298.3a8.7,8.7,0,0,0-8.689-8.69Zm2.9,52.137a2.9,2.9,0,0,1-2.9,2.9h-31.862a2.9,2.9,0,0,1-2.9-2.9V2298.3a2.9,2.9,0,0,1,2.9-2.9h31.862a2.9,2.9,0,0,1,2.9,2.9Z" fill="#a4dbf5"/>
      <path id="Trazado_3792" data-name="Trazado 3792" d="M-1313.207,2316.4h10.137a2.173,2.173,0,0,0,2.173-2.172V2304.09a2.174,2.174,0,0,0-2.173-2.173h-10.137a2.174,2.174,0,0,0-2.173,2.173v10.138a2.173,2.173,0,0,0,2.173,2.172Z" fill="#a4dbf5"/>
      <path id="Trazado_3793" data-name="Trazado 3793" d="M-1287.863,2310.607h-6.517a2.9,2.9,0,0,0-2.9,2.9,2.9,2.9,0,0,0,2.9,2.9h6.517a2.9,2.9,0,0,0,2.9-2.9,2.9,2.9,0,0,0-2.9-2.9Z" fill="#a4dbf5"/>
      <path id="Trazado_3794" data-name="Trazado 3794" d="M-1287.863,2301.917h-6.517a2.9,2.9,0,0,0-2.9,2.9,2.9,2.9,0,0,0,2.9,2.9h6.517a2.9,2.9,0,0,0,2.9-2.9,2.9,2.9,0,0,0-2.9-2.9Z" fill="#a4dbf5"/>
      <path id="Trazado_3795" data-name="Trazado 3795" d="M-1288.587,2333.779h-24.62a2.9,2.9,0,0,0-2.9,2.9,2.9,2.9,0,0,0,2.9,2.9h24.62a2.9,2.9,0,0,0,2.9-2.9,2.9,2.9,0,0,0-2.9-2.9Z" fill="#a4dbf5"/>
      <path id="Trazado_3796" data-name="Trazado 3796" d="M-1288.587,2322.193h-24.62a2.9,2.9,0,0,0-2.9,2.9,2.9,2.9,0,0,0,2.9,2.9h24.62a2.9,2.9,0,0,0,2.9-2.9,2.9,2.9,0,0,0-2.9-2.9Z" fill="#a4dbf5"/>
    </g>
  </g>
</svg>
