<svg xmlns="http://www.w3.org/2000/svg" width="312.304" height="72.144" viewBox="0 0 312.304 72.144">
  <g id="Grupo_10594" data-name="Grupo 10594" transform="translate(-169.103 -3056.334)">
    <text id="Inicialización" transform="translate(280.407 3101.181)" fill="#407dcf" font-size="30" font-family="Montserrat-SemiBold, Montserrat" font-weight="600"><tspan x="0" y="0">Inicialización</tspan></text>
    <line id="Línea_439" data-name="Línea 439" y2="68.144" transform="translate(260.709 3058.334)" fill="none" stroke="#a4dbf5" stroke-linecap="round" stroke-miterlimit="10" stroke-width="4"/>
    <g id="Grupo_10589" data-name="Grupo 10589" transform="translate(1512 -1)">
      <path id="Trazado_3959" data-name="Trazado 3959" d="M-1280.248,3102.095h-34.408a2.174,2.174,0,0,0-2.172,2.173v8.148a15.613,15.613,0,0,0,4.976,11.406h-5.7a2.168,2.168,0,0,0-2.172,2.17,2.173,2.173,0,0,0,2.172,2.172h33.31a2.173,2.173,0,0,0,2.172-2.172,2.173,2.173,0,0,0-2.172-2.173h-5.683a15.49,15.49,0,0,0,4.359-7.241h5.318a7.07,7.07,0,0,0,6.868-7.241,7.071,7.071,0,0,0-6.868-7.242Zm0,10.138h-4.718v-5.793h4.718a2.734,2.734,0,0,1,2.523,2.9,2.733,2.733,0,0,1-2.523,2.9Z" fill="#a4dbf5"/>
      <path id="Trazado_3960" data-name="Trazado 3960" d="M-1295.1,3087.772c-.006-.066.1-.284.472-.532a2.17,2.17,0,0,0,.585-3.016,2.173,2.173,0,0,0-3.015-.585,4.913,4.913,0,0,0-2.369,4.5,5.443,5.443,0,0,0,3.438,4.348c.648.292.88.634.892.756.005.066-.1.284-.473.532a2.172,2.172,0,0,0-.585,3.016,2.168,2.168,0,0,0,1.8.959,2.175,2.175,0,0,0,1.214-.371,4.913,4.913,0,0,0,2.369-4.5,5.445,5.445,0,0,0-3.438-4.348c-.652-.295-.884-.637-.892-.759Z" fill="#a4dbf5"/>
      <path id="Trazado_3961" data-name="Trazado 3961" d="M-1304.99,3093.777a2.168,2.168,0,0,0-.585,3.015,2.168,2.168,0,0,0,1.8.959,2.169,2.169,0,0,0,1.213-.371,4.912,4.912,0,0,0,2.369-4.5,5.443,5.443,0,0,0-3.438-4.348c-.648-.292-.88-.634-.892-.756-.005-.066.1-.284.473-.532a2.171,2.171,0,0,0,.585-3.016,2.174,2.174,0,0,0-3.016-.585,4.913,4.913,0,0,0-2.369,4.5,5.443,5.443,0,0,0,3.438,4.348c.649.292.881.634.892.756.006.066-.1.281-.472.53Z" fill="#a4dbf5"/>
      <path id="Trazado_3962" data-name="Trazado 3962" d="M-1322.766,3113.682h-11.441a2.9,2.9,0,0,1-2.9-2.9v-43.448a2.9,2.9,0,0,1,2.9-2.9h31.862a2.9,2.9,0,0,1,2.9,2.9v9.414a2.9,2.9,0,0,0,2.9,2.9,2.9,2.9,0,0,0,2.9-2.9v-9.414a8.7,8.7,0,0,0-8.689-8.689h-31.862a8.7,8.7,0,0,0-8.69,8.689v43.448a8.7,8.7,0,0,0,8.69,8.69h11.441a2.9,2.9,0,0,0,2.9-2.9,2.9,2.9,0,0,0-2.9-2.9Z" fill="#a4dbf5"/>
      <path id="Trazado_3963" data-name="Trazado 3963" d="M-1331.31,3085.441h9.413a2.174,2.174,0,0,0,2.173-2.173v-9.413a2.174,2.174,0,0,0-2.173-2.173h-9.413a2.173,2.173,0,0,0-2.173,2.173v9.413a2.173,2.173,0,0,0,2.173,2.173Z" fill="#a4dbf5"/>
      <path id="Trazado_3964" data-name="Trazado 3964" d="M-1302.345,3073.855a2.173,2.173,0,0,0-2.173-2.173h-7.965a2.173,2.173,0,0,0-2.173,2.173,2.173,2.173,0,0,0,2.173,2.172h7.965a2.173,2.173,0,0,0,2.173-2.172Z" fill="#a4dbf5"/>
      <path id="Trazado_3965" data-name="Trazado 3965" d="M-1331.31,3102.82a2.173,2.173,0,0,0-2.173,2.172,2.173,2.173,0,0,0,2.173,2.172h7.965a2.173,2.173,0,0,0,2.172-2.172,2.173,2.173,0,0,0-2.172-2.172Z" fill="#a4dbf5"/>
      <path id="Trazado_3966" data-name="Trazado 3966" d="M-1311.18,3094.13a2.173,2.173,0,0,0-2.172-2.172h-17.958a2.173,2.173,0,0,0-2.173,2.172,2.173,2.173,0,0,0,2.173,2.172h17.958a2.173,2.173,0,0,0,2.172-2.172Z" fill="#a4dbf5"/>
    </g>
  </g>
</svg>
