<svg xmlns="http://www.w3.org/2000/svg" width="433.487" height="177.461" viewBox="0 0 433.487 177.461">
  <g id="Grupo_10575" data-name="Grupo 10575" transform="translate(940.839 -4613.136)">
    <text id="Fila_0_Columna_1" data-name="Fila 0 Columna 1" transform="translate(-652.352 4654.602)" fill="#805413" font-size="18" font-family="OpenSans-Regular, Open Sans"><tspan x="0" y="19">Fila 0 Columna 1</tspan></text>
    <text id="Fila_2_Columna_3" data-name="Fila 2 Columna 3" transform="translate(-652.352 4752.202)" fill="#805413" font-size="18" font-family="OpenSans-Regular, Open Sans"><tspan x="0" y="19">Fila 2 Columna 3</tspan></text>
    <text id="_0" data-name="0" transform="translate(-894.639 4613.136)" fill="#805413" font-size="18" font-family="OpenSans-Regular, Open Sans"><tspan x="9.254" y="19">0</tspan></text>
    <text id="_0-2" data-name="0" transform="translate(-940.839 4654.329)" fill="#805413" font-size="18" font-family="OpenSans-Regular, Open Sans"><tspan x="9.254" y="19">0</tspan></text>
    <text id="_1" data-name="1" transform="translate(-940.839 4703.129)" fill="#805413" font-size="18" font-family="OpenSans-Regular, Open Sans"><tspan x="9.254" y="19">1</tspan></text>
    <text id="_2" data-name="2" transform="translate(-940.839 4751.929)" fill="#805413" font-size="18" font-family="OpenSans-Regular, Open Sans"><tspan x="9.254" y="19">2</tspan></text>
    <text id="_1-2" data-name="1" transform="translate(-845.839 4613.136)" fill="#805413" font-size="18" font-family="OpenSans-Regular, Open Sans"><tspan x="9.254" y="19">1</tspan></text>
    <text id="_2-2" data-name="2" transform="translate(-797.039 4613.136)" fill="#805413" font-size="18" font-family="OpenSans-Regular, Open Sans"><tspan x="9.254" y="19">2</tspan></text>
    <text id="_3" data-name="3" transform="translate(-748.239 4613.136)" fill="#805413" font-size="18" font-family="OpenSans-Regular, Open Sans"><tspan x="9.254" y="19">3</tspan></text>
    <rect id="Rectángulo_4448" data-name="Rectángulo 4448" width="48.8" height="48.8" transform="translate(-904.639 4642.697)" stroke-width="3" stroke="#ffca7d" stroke-linecap="round" stroke-linejoin="round" fill="#ffe7ba"/>
    <g id="Grupo_10572" data-name="Grupo 10572">
      <rect id="Rectángulo_4449" data-name="Rectángulo 4449" width="48.8" height="48.8" transform="translate(-855.839 4642.697)" stroke-width="3" stroke="#ffca7d" stroke-linecap="round" stroke-linejoin="round" fill="#ffe7ba"/>
      <rect id="Rectángulo_4450" data-name="Rectángulo 4450" width="48.8" height="48.8" transform="translate(-807.039 4642.697)" stroke-width="3" stroke="#ffca7d" stroke-linecap="round" stroke-linejoin="round" fill="#ffe7ba"/>
    </g>
    <rect id="Rectángulo_4451" data-name="Rectángulo 4451" width="48.8" height="48.8" transform="translate(-758.239 4642.697)" stroke-width="3" stroke="#ffca7d" stroke-linecap="round" stroke-linejoin="round" fill="#ffe7ba"/>
    <rect id="Rectángulo_4452" data-name="Rectángulo 4452" width="48.8" height="48.8" transform="translate(-904.639 4691.497)" stroke-width="3" stroke="#ffca7d" stroke-linecap="round" stroke-linejoin="round" fill="#ffe7ba"/>
    <rect id="Rectángulo_4453" data-name="Rectángulo 4453" width="48.8" height="48.8" transform="translate(-855.839 4691.497)" stroke-width="3" stroke="#ffca7d" stroke-linecap="round" stroke-linejoin="round" fill="#ffe7ba"/>
    <rect id="Rectángulo_4454" data-name="Rectángulo 4454" width="48.8" height="48.8" transform="translate(-807.039 4691.497)" stroke-width="3" stroke="#ffca7d" stroke-linecap="round" stroke-linejoin="round" fill="#ffe7ba"/>
    <rect id="Rectángulo_4455" data-name="Rectángulo 4455" width="48.8" height="48.8" transform="translate(-758.239 4691.497)" stroke-width="3" stroke="#ffca7d" stroke-linecap="round" stroke-linejoin="round" fill="#ffe7ba"/>
    <rect id="Rectángulo_4456" data-name="Rectángulo 4456" width="48.8" height="48.8" transform="translate(-904.639 4740.297)" stroke-width="3" stroke="#ffca7d" stroke-linecap="round" stroke-linejoin="round" fill="#ffe7ba"/>
    <rect id="Rectángulo_4457" data-name="Rectángulo 4457" width="48.8" height="48.8" transform="translate(-855.839 4740.297)" stroke-width="3" stroke="#ffca7d" stroke-linecap="round" stroke-linejoin="round" fill="#ffe7ba"/>
    <rect id="Rectángulo_4458" data-name="Rectángulo 4458" width="48.8" height="48.8" transform="translate(-807.039 4740.297)" stroke-width="3" stroke="#ffca7d" stroke-linecap="round" stroke-linejoin="round" fill="#ffe7ba"/>
    <rect id="Rectángulo_4459" data-name="Rectángulo 4459" width="48.8" height="48.8" transform="translate(-758.239 4740.297)" stroke-width="3" stroke="#ffca7d" stroke-linecap="round" stroke-linejoin="round" fill="#ffe7ba"/>
    <text id="_15" data-name="15" transform="translate(-845.839 4654.329)" fill="#805413" font-size="18" font-family="OpenSans-Regular, Open Sans"><tspan x="4.108" y="19">15</tspan></text>
    <text id="_40" data-name="40" transform="translate(-748.239 4751.929)" fill="#805413" font-size="18" font-family="OpenSans-Regular, Open Sans"><tspan x="4.108" y="19">40</tspan></text>
    <g id="Grupo_10573" data-name="Grupo 10573">
      <line id="Línea_441" data-name="Línea 441" x2="149.9" transform="translate(-817.039 4667.097)" fill="none" stroke="#a3f0f5" stroke-linecap="round" stroke-linejoin="round" stroke-width="2"/>
      <path id="Trazado_3945" data-name="Trazado 3945" d="M-662.848,4668.244l-8.672,4.336a1.282,1.282,0,0,1-1.855-1.147v-8.672a1.281,1.281,0,0,1,1.855-1.146l8.672,4.335A1.282,1.282,0,0,1-662.848,4668.244Z" fill="#a3f0f5"/>
    </g>
    <g id="Grupo_10574" data-name="Grupo 10574">
      <line id="Línea_442" data-name="Línea 442" x2="52.3" transform="translate(-719.439 4764.697)" fill="none" stroke="#a3f0f5" stroke-linecap="round" stroke-linejoin="round" stroke-width="2"/>
      <path id="Trazado_3946" data-name="Trazado 3946" d="M-662.848,4765.844l-8.672,4.336a1.282,1.282,0,0,1-1.855-1.147v-8.672a1.281,1.281,0,0,1,1.855-1.146l8.672,4.335A1.283,1.283,0,0,1-662.848,4765.844Z" fill="#a3f0f5"/>
    </g>
  </g>
</svg>
