<svg xmlns="http://www.w3.org/2000/svg" width="1096.213" height="138.006" viewBox="0 0 1096.213 138.006">
  <g id="Grupo_10594" data-name="Grupo 10594" transform="translate(-172 -6906.617)">
    <g id="Grupo_10593" data-name="Grupo 10593">
      <rect id="Rectángulo_4312" data-name="Rectángulo 4312" width="1096.213" height="138.006" rx="14" transform="translate(172 6906.617)" fill="#d4f4f7"/>
    </g>
    <g id="Grupo_10447" data-name="Grupo 10447">
      <path id="Trazado_3759" data-name="Trazado 3759" d="M205.244,6929.134v2.618c-2.066,1.153-4.049,4.342-4.049,6.481q5.668,0,5.669,5.577,0,5.742-6.233,5.74-6.126,0-6.127-6.816Q194.5,6932.135,205.244,6929.134Zm15.386,0v2.618a9.013,9.013,0,0,0-4.014,6.481q5.634,0,5.634,5.577,0,5.742-6.232,5.74-6.128,0-6.127-6.816Q209.891,6932.167,220.63,6929.134Z" fill="#94e3ec"/>
    </g>
    <g id="Grupo_10448" data-name="Grupo 10448">
      <path id="Trazado_3760" data-name="Trazado 3760" d="M1231.593,6993.189v-2.618c2.066-1.153,4.049-4.342,4.049-6.481q-5.668,0-5.669-5.577,0-5.741,6.232-5.74,6.128,0,6.127,6.816Q1242.332,6990.188,1231.593,6993.189Zm-15.387,0v-2.618a9.01,9.01,0,0,0,4.014-6.481q-5.633,0-5.633-5.577,0-5.741,6.232-5.74,6.126,0,6.126,6.816Q1226.945,6990.156,1216.206,6993.189Z" fill="#94e3ec"/>
    </g>
    <text id="A_la_operación_de_efectuar_una_acción_general_sobre_todos_los_elementos_de_un_vector_se_la_denomina_recorrido_del_vector_" data-name="A la operación de efectuar una acción general sobre todos los elementos de un vector se la denomina recorrido del vector
" transform="translate(240.567 6938.223)" fill="#00223d" font-size="16" font-family="OpenSans-Regular, Open Sans"><tspan x="0" y="17">A la operación de efectuar una acción general sobre todos los elementos de un vector se la denomina recorrido del vector</tspan><tspan font-family="OpenSans"><tspan x="0" y="39"></tspan></tspan></text>
    <text id="Joyanes_1996_" data-name="Joyanes, 1996
" transform="translate(238.721 7005.424)" fill="#00ad9c" font-size="16" font-family="OpenSans-Italic, Open Sans" font-style="italic"><tspan x="862.172" y="17">Joyanes, 1996</tspan></text>
  </g>
</svg>
