<svg xmlns="http://www.w3.org/2000/svg" width="312.092" height="72.144" viewBox="0 0 312.092 72.144">
  <g id="Grupo_10595" data-name="Grupo 10595" transform="translate(-164.315 -4113.824)">
    <text id="Operaciones" transform="translate(280.407 4158.671)" fill="#407dcf" font-size="30" font-family="Montserrat-SemiBold, Montserrat" font-weight="600"><tspan x="0" y="0">Operaciones</tspan></text>
    <line id="Línea_440" data-name="Línea 440" y2="68.144" transform="translate(260.709 4115.824)" fill="none" stroke="#a4dbf5" stroke-linecap="round" stroke-miterlimit="10" stroke-width="4"/>
    <g id="Grupo_10590" data-name="Grupo 10590" transform="translate(1512 -1)">
      <path id="Trazado_3967" data-name="Trazado 3967" d="M-1345.368,4185.654h74.459a2.316,2.316,0,0,0,2.317-2.317v-64.882a2.316,2.316,0,0,0-2.317-2.317h-74.459a2.316,2.316,0,0,0-2.317,2.317v64.882a2.316,2.316,0,0,0,2.317,2.317Zm2.317-64.882h69.825v60.248h-69.825Zm0,0" fill="#a4dbf5"/>
      <path id="Trazado_3968" data-name="Trazado 3968" d="M-1277.86,4127.724a2.317,2.317,0,0,1-2.318,2.317,2.317,2.317,0,0,1-2.317-2.317,2.316,2.316,0,0,1,2.317-2.317,2.316,2.316,0,0,1,2.318,2.317Zm0,0" fill="#a4dbf5"/>
      <path id="Trazado_3969" data-name="Trazado 3969" d="M-1287.129,4127.724a2.317,2.317,0,0,1-2.317,2.317,2.317,2.317,0,0,1-2.318-2.317,2.317,2.317,0,0,1,2.318-2.317,2.316,2.316,0,0,1,2.317,2.317Zm0,0" fill="#a4dbf5"/>
      <path id="Trazado_3970" data-name="Trazado 3970" d="M-1296.4,4127.724a2.317,2.317,0,0,1-2.317,2.317,2.317,2.317,0,0,1-2.317-2.317,2.316,2.316,0,0,1,2.317-2.317,2.316,2.316,0,0,1,2.317,2.317Zm0,0" fill="#a4dbf5"/>
      <path id="Trazado_3971" data-name="Trazado 3971" d="M-1336.1,4130.041h28.115a2.317,2.317,0,0,0,2.317-2.317,2.316,2.316,0,0,0-2.317-2.317H-1336.1a2.316,2.316,0,0,0-2.318,2.317,2.317,2.317,0,0,0,2.318,2.317Zm0,0" fill="#a4dbf5"/>
      <path id="Trazado_3972" data-name="Trazado 3972" d="M-1280.178,4134.676H-1336.1a2.317,2.317,0,0,0-2.318,2.317v37.075a2.316,2.316,0,0,0,2.318,2.317h55.921a2.316,2.316,0,0,0,2.318-2.317v-37.075a2.317,2.317,0,0,0-2.318-2.317Zm-2.317,37.075h-51.287V4139.31h51.287Zm0,0" fill="#a4dbf5"/>
      <path id="Trazado_3973" data-name="Trazado 3973" d="M-1298.326,4161.451a2.317,2.317,0,0,0,3.213.642l6.952-4.635a2.315,2.315,0,0,0,1.032-1.928,2.315,2.315,0,0,0-1.032-1.927l-6.952-4.635a2.317,2.317,0,0,0-3.213.642,2.318,2.318,0,0,0,.643,3.214l4.059,2.706-4.06,2.707a2.319,2.319,0,0,0-.642,3.214Zm0,0" fill="#a4dbf5"/>
      <path id="Trazado_3974" data-name="Trazado 3974" d="M-1328.115,4157.458l6.951,4.635a2.317,2.317,0,0,0,3.213-.642,2.318,2.318,0,0,0-.643-3.214l-4.059-2.707,4.06-2.706a2.319,2.319,0,0,0,.643-3.213,2.318,2.318,0,0,0-3.214-.643l-6.951,4.635a2.315,2.315,0,0,0-1.033,1.927,2.314,2.314,0,0,0,1.033,1.928Zm0,0" fill="#a4dbf5"/>
      <path id="Trazado_3975" data-name="Trazado 3975" d="M-1313.991,4166.858a2.319,2.319,0,0,0,3.123-1l9.577-18.538a2.316,2.316,0,0,0-.995-3.122,2.316,2.316,0,0,0-3.122,1l-9.578,18.538a2.316,2.316,0,0,0,.995,3.122Zm0,0" fill="#a4dbf5"/>
    </g>
  </g>
</svg>
